<svg width="92" height="45" viewBox="0 0 92 45" fill="none" xmlns="http://www.w3.org/2000/svg">
<path d="M15.684 40.474L0.68 25.47L15.684 10.466L20.892 15.674L10.724 25.47L20.892 35.266L15.684 40.474ZM47.5849 0.359998H56.0169L44.1129 45H35.6809L47.5849 0.359998ZM76.058 40.474L70.85 35.266L81.018 25.47L70.85 15.674L76.058 10.466L91.062 25.47L76.058 40.474Z" fill="white"/>
<path d="M15.684 40.474L0.68 25.47L15.684 10.466L20.892 15.674L10.724 25.47L20.892 35.266L15.684 40.474ZM47.5849 0.359998H56.0169L44.1129 45H35.6809L47.5849 0.359998ZM76.058 40.474L70.85 35.266L81.018 25.47L70.85 15.674L76.058 10.466L91.062 25.47L76.058 40.474Z" fill="#2CDA9D"/>
</svg>
